<svg xmlns="http://www.w3.org/2000/svg" viewBox="0 0 74.19 87.62"><defs><style>.cls-1{fill:#f26522;}</style></defs><title>logoff</title><g id="Layer_2" data-name="Layer 2"><g id="Layer_1-2" data-name="Layer 1"><path class="cls-1" d="M68.69,53.84,50.36,72.16a18.76,18.76,0,0,1-26.54,0L5.5,53.84A18.53,18.53,0,0,1,.69,45.55,18.75,18.75,0,0,0,5.5,63.8L23.82,82.12a18.76,18.76,0,0,0,26.54,0L68.69,63.8A18.75,18.75,0,0,0,73.5,45.55,18.62,18.62,0,0,1,68.69,53.84Z"/><path class="cls-1" d="M74,32.57a18.67,18.67,0,0,1-5.3,10.55L50.36,61.44a18.76,18.76,0,0,1-26.54,0L5.5,43.12a18.75,18.75,0,0,1,0-26.54l2.27-2.27,6.42-6.43A37.21,37.21,0,0,1,60,7.9l6.37,6.37,2.31,2.31A18.72,18.72,0,0,1,74,32.57Z"/></g></g></svg>